<?xml version="1.0" standalone="no"?>
<!DOCTYPE svg PUBLIC "-//W3C//DTD SVG 20010904//EN"
 "http://www.w3.org/TR/2001/REC-SVG-20010904/DTD/svg10.dtd">
<svg version="1.0" xmlns="http://www.w3.org/2000/svg"
 width="1360.000000pt" height="447.000000pt" viewBox="0 0 1360.000000 447.000000"
 preserveAspectRatio="xMidYMid meet">

<g transform="translate(0.000000,447.000000) scale(0.100000,-0.100000)"
fill="#000000" stroke="none">
<path d="M2 2006 c2 -448 6 -817 10 -821 3 -4 78 17 165 45 621 204 1407 352
2253 425 638 54 1412 58 2080 10 1102 -80 2124 -266 3255 -592 470 -135 549
-157 840 -228 1268 -312 2449 -409 3515 -289 479 54 1043 182 1428 326 l52 19
0 960 0 959 -6800 0 -6800 0 2 -814z"/>
</g>
</svg>
